<?xml version="1.0" standalone="no"?>
<!DOCTYPE svg PUBLIC "-//W3C//DTD SVG 1.1//EN" "http://www.w3.org/Graphics/SVG/1.1/DTD/svg11.dtd" >
<svg xmlns="http://www.w3.org/2000/svg" xmlns:xlink="http://www.w3.org/1999/xlink" version="1.1">
<metadata></metadata>
<defs>
<font id="flama_ultracondensedbook" horiz-adv-x="512" >
<font-face units-per-em="2048" ascent="1638" descent="-410" />
<missing-glyph horiz-adv-x="174" />
<glyph unicode="&#xfb01;" horiz-adv-x="548" d="M35 995v86h63v250q0 60 35.5 98.5t102.5 38.5q39 0 59 -6v-86q-14 2 -49 2q-20 0 -32.5 -12.5t-12.5 -36.5v-248h75v-86h-75v-995h-103v995h-63zM375 0v1081h100v-1081h-100zM375 1255v209h100v-209h-100z" />
<glyph unicode="&#xfb02;" horiz-adv-x="565" d="M35 995v86h63v250q0 60 35.5 98.5t102.5 38.5q39 0 59 -6v-86q-14 2 -49 2q-20 0 -32.5 -12.5t-12.5 -36.5v-248h75v-86h-75v-995h-103v995h-63zM375 90v1370h100v-1347q0 -23 25 -23q16 0 30 2v-90q-25 -10 -61 -10q-53 0 -73.5 25.5t-20.5 72.5z" />
<glyph horiz-adv-x="0" />
<glyph horiz-adv-x="682" />
<glyph unicode=" "  horiz-adv-x="174" />
<glyph unicode="&#x09;" horiz-adv-x="174" />
<glyph unicode="&#xa0;" horiz-adv-x="174" />
<glyph unicode="!" horiz-adv-x="266" d="M82 870v590h102v-590l-14 -499h-72zM84 0v203h96v-203h-96z" />
<glyph unicode="&#x22;" horiz-adv-x="430" d="M74 1286v178h90v-178l-12 -196h-62zM264 1286v178h92v-178l-14 -196h-61z" />
<glyph unicode="#" horiz-adv-x="600" d="M45 408l6 77h90l37 500h-94l6 80h90l35 403h80l-31 -403h125l29 403h84l-31 -403h90l-4 -80h-88l-37 -500h90l-4 -77h-90l-29 -412h-82l29 412h-127l-24 -412h-84l24 412h-90zM225 485h127l33 500h-125z" />
<glyph unicode="$" horiz-adv-x="493" d="M43 367h96q2 -50 6.5 -84.5t15.5 -66.5t32 -48t53 -16q35 0 57.5 24t30.5 55.5t8 69.5q0 134 -92 313l-92 181q-35 71 -52 109.5t-36 109.5t-19 135q0 89 38 149.5t112 77.5v135h94v-133q78 -12 115.5 -77.5t40.5 -210.5h-101q-4 120 -27 163t-73 43q-47 0 -69.5 -35 t-22.5 -112q0 -74 32.5 -162t69.5 -151l57 -113q37 -73 59.5 -124.5t45 -136.5t22.5 -161q0 -95 -37.5 -156t-111.5 -73v-144h-94v142q-79 14 -118 85.5t-40 211.5z" />
<glyph unicode="%" horiz-adv-x="845" d="M63 956v353q0 85 40 132.5t112 47.5q73 0 114.5 -47.5t41.5 -130.5v-355q0 -81 -42.5 -127.5t-113.5 -46.5t-111.5 46.5t-40.5 127.5zM145 956q0 -94 68 -94q41 0 57.5 28.5t16.5 65.5v361q0 36 -17 65t-57 29q-68 0 -68 -94v-361zM186 0l404 1481h74l-398 -1481h-80z M477 154v342q0 84 41 137t113 53t112.5 -48t40.5 -132v-352q0 -83 -41 -128.5t-112 -45.5t-112.5 46t-41.5 128zM559 152q0 -95 70 -97q39 0 55 29.5t16 67.5v362q0 35 -16.5 63.5t-54.5 28.5q-70 0 -70 -92v-362z" />
<glyph unicode="&#x26;" horiz-adv-x="567" d="M51 377q0 146 25 251.5t96 180.5q-88 238 -88 401q0 122 43.5 199.5t136.5 77.5q164 0 164 -268q0 -263 -141 -433q1 -4 66 -195t67 -196q21 138 31 248l79 -4q-20 -207 -65 -377l92 -262h-100l-47 139q-22 -72 -65 -117t-93 -45q-60 0 -101.5 33t-62.5 93t-29 125.5 t-8 148.5zM154 334q0 -17 1.5 -49t4.5 -52t7.5 -47t12.5 -43.5t18.5 -33t26.5 -24t35 -7.5q40 0 71 51.5t44 110.5l-164 469q-21 -31 -33.5 -68t-17 -88.5t-5.5 -79.5t-1 -92v-47zM186 1217q0 -151 66 -349q82 122 82 344q0 86 -15 138.5t-59 52.5q-30 0 -47 -28t-22 -65.5 t-5 -92.5z" />
<glyph unicode="'" horiz-adv-x="239" d="M74 1286v178h90v-178l-12 -196h-62z" />
<glyph unicode="(" horiz-adv-x="274" d="M70 580q0 232 34 478t99 425l59 -8q-56 -295 -76 -462.5t-20 -434.5q0 -375 96 -900l-59 -12q-64 177 -98.5 432.5t-34.5 481.5z" />
<glyph unicode=")" horiz-adv-x="274" d="M12 -322q47 259 72 470.5t25 429.5q0 266 -20 432t-77 465l60 8q65 -179 99 -425t34 -478q0 -226 -34.5 -481.5t-98.5 -432.5z" />
<glyph unicode="*" horiz-adv-x="501" d="M49 1325l37 64l129 -78v155h74v-155l127 78l39 -64l-138 -88l89 -141l-60 -41l-94 149l-94 -149l-62 41l88 141z" />
<glyph unicode="+" d="M51 614v86h166v199h78l-2 -199h168v-86h-166v-194h-78v194h-166z" />
<glyph unicode="," horiz-adv-x="243" d="M74 6v197h96v-187l-37 -188h-57l24 178h-26z" />
<glyph unicode="-" horiz-adv-x="333" d="M43 569v99h248v-99h-248z" />
<glyph unicode="." horiz-adv-x="243" d="M74 0v203h96v-203h-96z" />
<glyph unicode="/" horiz-adv-x="333" d="M-25 -324l258 1784h82l-252 -1784h-88z" />
<glyph unicode="0" horiz-adv-x="495" d="M55 203v1075q0 96 56 149.5t141 53.5q82 0 135 -49.5t53 -141.5v-1089q0 -108 -53 -161.5t-145 -53.5t-139.5 57t-47.5 160zM164 188q0 -39 20 -71.5t64 -32.5q84 0 84 104v1098q0 39 -21 67.5t-63 28.5q-45 0 -64.5 -27.5t-19.5 -64.5v-1102z" />
<glyph unicode="1" horiz-adv-x="362" d="M49 1376l121 84h70v-1460h-105v1329l-65 -31z" />
<glyph unicode="2" horiz-adv-x="450" d="M41 0v80l119 332q73 212 105 376t32 322v43q0 229 -78 229q-16 0 -28.5 -8.5t-19.5 -25.5t-11 -32t-5.5 -39.5t-2 -36t-0.5 -32.5v-114h-101v110q0 125 41 201t133 76q90 0 135.5 -80.5t45.5 -255.5q0 -217 -39.5 -394.5t-116.5 -392.5l-92 -258v-4h250v-96h-367z" />
<glyph unicode="3" horiz-adv-x="462" d="M43 350v39h111v-53q0 -37 0.5 -55t2 -54t6.5 -55.5t13 -42t21.5 -33t31.5 -10.5q45 0 60.5 78t15.5 246q0 290 -112 290h-56v109h64q58 0 78 73.5t20 233.5q0 104 -8.5 163t-24.5 81t-43 22q-13 0 -23 -5t-17 -16.5t-12.5 -22.5t-8.5 -31t-4.5 -33t-2.5 -38.5t-1 -37 v-37.5v-67h-103v90q0 297 182 297q49 0 84 -30t54.5 -83.5t28 -115.5t8.5 -136q0 -296 -111 -350v-4q121 -55 121 -369q0 -407 -189 -407q-41 0 -72 13.5t-51 41t-33 59t-19.5 76t-8.5 83.5t-2 91z" />
<glyph unicode="4" horiz-adv-x="477" d="M29 403v89l223 968h104l-231 -962h154v356l96 100v-456h76v-95h-76v-403h-96v403h-250z" />
<glyph unicode="5" horiz-adv-x="460" d="M43 260v133h107v-114q0 -193 79 -193q82 0 82 199v372q0 87 -16.5 126.5t-61.5 39.5q-32 0 -55 -27t-33 -67h-84l23 731h319v-98h-227q0 -8 -7 -260.5t-7 -259.5q32 76 117 76q58 0 98.5 -50.5t40.5 -158.5v-414q0 -141 -46.5 -225t-142.5 -84q-97 0 -141.5 74.5 t-44.5 199.5z" />
<glyph unicode="6" horiz-adv-x="489" d="M63 215v1042q0 110 52 166t139 56q84 0 131 -57.5t47 -139.5v-188h-102v166q0 124 -80 124q-29 0 -47 -13t-25 -37t-8.5 -40t-1.5 -41v-428q22 26 52.5 42t58.5 16q75 0 115 -46t40 -137v-489q0 -106 -51 -165.5t-139 -59.5q-90 0 -135.5 63t-45.5 166zM168 195 q0 -42 19 -77.5t63 -35.5q80 0 80 125v487q0 41 -18.5 69t-59.5 28q-43 0 -63.5 -31t-20.5 -68v-497z" />
<glyph unicode="7" horiz-adv-x="438" d="M49 1362v98h350v-88q-172 -498 -190 -1372h-100q9 846 186 1362h-246z" />
<glyph unicode="8" horiz-adv-x="487" d="M51 205v393q0 111 72 164q-62 50 -62 172v342q0 98 53 151.5t136 53.5q79 0 129.5 -49.5t50.5 -143.5v-352q0 -120 -65 -172q71 -49 71 -154v-405q0 -108 -53.5 -161.5t-144.5 -53.5q-90 0 -138.5 56.5t-48.5 158.5zM160 195q0 -42 19.5 -75.5t66.5 -33.5q82 0 82 107 v419q0 42 -20 74.5t-62 32.5q-46 0 -66 -31.5t-20 -71.5v-421zM166 922q0 -43 18 -78t62 -35q80 0 80 111v366q0 39 -19.5 68.5t-60.5 29.5q-80 0 -80 -96v-366z" />
<glyph unicode="9" horiz-adv-x="483" d="M55 774v481q0 106 51 165t140 59q90 0 136 -62.5t46 -167.5v-1011q0 -129 -51.5 -189.5t-140.5 -60.5q-86 0 -132.5 60t-46.5 159v182h103v-170q0 -135 80 -135q47 0 64.5 35.5t17.5 99.5v432q-20 -26 -51 -41.5t-58 -15.5q-158 0 -158 180zM160 780q0 -39 18.5 -67.5 t59.5 -28.5q43 0 63.5 31t20.5 69v486q0 43 -19 78.5t-61 35.5q-82 0 -82 -124v-480z" />
<glyph unicode=":" horiz-adv-x="243" d="M74 0v203h96v-203h-96zM78 879v202h96v-202h-96z" />
<glyph unicode=";" horiz-adv-x="247" d="M76 -172l28 178h-26v197h96v-187l-41 -188h-57zM78 879v202h96v-202h-96z" />
<glyph unicode="&#x3c;" d="M68 625l2 69l331 187l41 -78l-264 -144l266 -145l-43 -76z" />
<glyph unicode="=" d="M53 492v88h406v-88h-406zM53 698v86h406v-86h-406z" />
<glyph unicode="&#x3e;" d="M68 805l43 76l333 -187l-2 -69l-331 -187l-41 78l264 143z" />
<glyph unicode="?" horiz-adv-x="464" d="M61 1071v105q0 151 38.5 228t133.5 77q50 0 84.5 -27.5t53.5 -78.5t27 -112t8 -141q0 -75 -14 -147t-28 -110.5t-40 -102.5q-20 -52 -30.5 -84.5t-20 -82t-9.5 -97.5v-127h-90v80q0 77 11.5 147.5t23.5 109t33 95.5q21 58 31 90t20 93t10 128v34.5v40t-0.5 38.5t-3 40.5 t-6 36t-9.5 33t-14 24t-19.5 18t-25.5 5.5q-30 0 -46.5 -28.5t-20.5 -65.5t-4 -94v-125h-93zM176 0v203h98v-203h-98z" />
<glyph unicode="@" horiz-adv-x="1028" d="M63 655q0 238 55 416.5t169 282.5t276 104q65 0 121 -17t109.5 -58.5t91 -106.5t60 -167.5t22.5 -234.5q0 -284 -100.5 -448t-260.5 -178h-76l11 82h-4q-50 -97 -148 -97q-61 0 -91 35t-30 90q0 25 4 45l90 625q11 75 61.5 124.5t117.5 49.5q74 0 104 -59h2l8 57h101 l-125 -872q52 2 95.5 37.5t72.5 91t49.5 126.5t29.5 143.5t9 143.5q0 116 -16.5 206t-45 149t-70.5 96.5t-90.5 53.5t-107.5 16q-108 0 -189 -56t-130 -156t-73 -229.5t-24 -285.5q0 -390 185 -527q104 -74 252 -74q99 0 229 41l20 -63q-113 -47 -268 -47q-189 0 -299 98 q-197 164 -197 563zM373 387q0 -31 12.5 -47t48.5 -16q49 0 80 42.5t41 108.5l74 516q2 8 2 23q0 45 -21 72.5t-61 27.5q-73 0 -90 -119l-80 -555q-6 -30 -6 -53z" />
<glyph unicode="A" horiz-adv-x="604" d="M41 0l184 1462h158l180 -1462h-108l-58 479h-198l-58 -479h-100zM211 578h174l-84 745h-6z" />
<glyph unicode="B" horiz-adv-x="514" d="M74 0v1460h166q53 0 92 -17.5t63.5 -48t39.5 -78t20.5 -101t5.5 -123.5q0 -141 -37 -228t-105 -104v-6q45 -12 74.5 -43t44 -80.5t20 -102t5.5 -125.5q0 -153 -25.5 -243.5t-69 -125t-112.5 -34.5h-182zM180 96h64q63 0 86.5 75.5t23.5 236.5q0 159 -33 226.5t-106 67.5 h-35v-606zM180 797h43q135 0 135 290q0 143 -28 209t-84 66h-66v-565z" />
<glyph unicode="C" horiz-adv-x="522" d="M59 195v1060q0 103 53.5 165.5t159.5 62.5q99 0 149 -60.5t50 -146.5v-254h-98v235q0 125 -103 125q-35 0 -57.5 -10.5t-32 -31.5t-12 -40.5t-2.5 -50.5v-1034q0 -61 26 -96t78 -35q103 0 103 133v229h98v-231q0 -101 -51.5 -165t-147.5 -64q-106 0 -159.5 56.5 t-53.5 152.5z" />
<glyph unicode="D" horiz-adv-x="536" d="M74 0v1460h190q93 0 154 -51.5t61 -148.5v-1031q0 -116 -61.5 -172.5t-161.5 -56.5h-182zM180 98h78q33 0 57 12.5t35 33t16 40.5t5 41v1026q0 48 -28.5 78.5t-84.5 30.5h-78v-1262z" />
<glyph unicode="E" horiz-adv-x="440" d="M74 0v1460h317v-100h-213v-537h178v-100h-178v-625h217v-98h-321z" />
<glyph unicode="F" horiz-adv-x="421" d="M74 0v1460h317v-100h-213v-539h172v-98h-172v-723h-104z" />
<glyph unicode="G" horiz-adv-x="530" d="M59 195v1060q0 103 53 165.5t158 62.5q100 0 150.5 -60.5t50.5 -146.5v-250h-98v231q0 125 -103 125q-28 0 -48 -8t-31 -19.5t-16.5 -31t-7 -35t-1.5 -39.5v-1034q0 -131 104 -131q103 0 103 133v461h-119v94h217v-557q0 -101 -51.5 -165t-147.5 -64q-106 0 -159.5 56.5 t-53.5 152.5z" />
<glyph unicode="H" horiz-adv-x="567" d="M74 0v1460h106v-657h207v657h107v-1460h-107v696h-207v-696h-106z" />
<glyph unicode="I" horiz-adv-x="251" d="M74 0v1460h106v-1460h-106z" />
<glyph unicode="J" horiz-adv-x="507" d="M43 203v260h107v-246q0 -137 96 -137q53 0 72.5 34t19.5 101v1245h106v-1259q0 -99 -54 -158t-148 -59q-101 0 -150 60.5t-49 158.5z" />
<glyph unicode="K" horiz-adv-x="542" d="M74 0v1460h106v-717l211 717h105l-164 -540l170 -920h-111l-131 774l-80 -252v-522h-106z" />
<glyph unicode="L" horiz-adv-x="423" d="M74 0v1460h104v-1362h217v-98h-321z" />
<glyph unicode="M" horiz-adv-x="667" d="M74 0v1460h108l150 -577h6l154 577h102v-1460h-102v1161h-3l-127 -477h-63l-123 473h-4v-1157h-98z" />
<glyph unicode="N" horiz-adv-x="575" d="M74 0v1460h133l196 -1073h5v1073h94v-1460h-115l-217 1190h-4v-1190h-92z" />
<glyph unicode="O" horiz-adv-x="540" d="M59 221v1039q0 106 59.5 162.5t155.5 56.5q93 0 150 -53t57 -152v-1055q0 -117 -57.5 -175t-157.5 -58q-207 0 -207 235zM168 207q0 -47 24 -85t78 -38q103 0 103 127v1061q0 47 -25 76.5t-78 29.5q-55 0 -78.5 -31t-23.5 -73v-1067z" />
<glyph unicode="P" horiz-adv-x="526" d="M74 0v1460h157q60 0 103 -20t70 -53.5t42.5 -87.5t21 -112t5.5 -136q0 -422 -240 -422h-53v-629h-106zM180 731h56q39 0 65.5 21t41 64.5t20.5 100.5t6 138q0 43 -0.5 70t-3.5 62.5t-8.5 57t-16 45.5t-25.5 36.5t-37 21t-51 8.5h-47v-625z" />
<glyph unicode="Q" horiz-adv-x="540" d="M59 221v1039q0 106 60 162.5t155 56.5q93 0 151 -53t58 -152v-1055q0 -85 -37 -145l107 -117l-86 -70l-102 119q-48 -20 -99 -20q-207 0 -207 235zM168 207q0 -47 24.5 -85t79.5 -38q103 0 103 127v1061q0 47 -25.5 76.5t-79.5 29.5q-55 0 -78.5 -31t-23.5 -73v-1067z " />
<glyph unicode="R" horiz-adv-x="534" d="M74 0v1460h159q130 0 186 -96t56 -283q0 -138 -30 -229t-70 -121l112 -731h-108l-103 696h-96v-696h-106zM180 788h84q101 0 101 275q0 48 -1 79.5t-8 76.5t-19.5 72t-37 47t-59.5 20h-60v-570z" />
<glyph unicode="S" horiz-adv-x="491" d="M47 340h105q0 -137 19 -198.5t79 -61.5q31 0 51.5 14.5t29 42.5t11 52.5t2.5 60.5q0 162 -92 364l-92 195q-37 86 -53.5 126.5t-36 120.5t-19.5 152q0 125 49 197t148 72q96 0 141.5 -73t46.5 -263h-98q-5 133 -25 187t-69 54t-68.5 -40.5t-19.5 -124.5q0 -23 3.5 -50 t8 -49.5t13 -51.5t14.5 -47.5t17.5 -48t16.5 -41t16.5 -39t12.5 -30.5l64 -129q124 -273 124 -481q0 -122 -53.5 -193t-142.5 -71q-106 0 -155 82q-48 81 -48 264v8z" />
<glyph unicode="T" horiz-adv-x="481" d="M25 1360v100h432v-100h-162v-1360h-105v1360h-165z" />
<glyph unicode="U" horiz-adv-x="534" d="M66 199v1261h106v-1253q0 -131 96 -131q32 0 53.5 12t31 34.5t13 44t3.5 50.5v1243h100v-1241q0 -109 -50.5 -173t-154.5 -64q-98 0 -148 58t-50 159z" />
<glyph unicode="V" horiz-adv-x="522" d="M41 1460h111l114 -1155h4l111 1155h100l-157 -1466h-113z" />
<glyph unicode="W" horiz-adv-x="786" d="M37 1460h110l93 -1095h4l96 1095h119l100 -1095h6l86 1095h99l-138 -1466h-100l-113 1147h-4l-104 -1147h-105z" />
<glyph unicode="X" horiz-adv-x="471" d="M10 1460h107l125 -559l123 559h94l-170 -717l174 -743h-105l-127 563l-125 -563h-94l170 727z" />
<glyph unicode="Y" horiz-adv-x="509" d="M37 1460h110l115 -624l113 624h100l-164 -813v-647h-106v651z" />
<glyph unicode="Z" horiz-adv-x="407" d="M39 0v98l219 1260h-207v102h320v-74l-221 -1286h219v-100h-330z" />
<glyph unicode="[" horiz-adv-x="280" d="M74 -328v1788h182v-69h-90v-1649h90v-70h-182z" />
<glyph unicode="\" horiz-adv-x="333" d="M0 1460h84l260 -1784h-88z" />
<glyph unicode="]" horiz-adv-x="280" d="M25 -256h90v1647h-90v69h182v-1786h-182v70z" />
<glyph unicode="^" d="M119 496l98 442h82l86 -442h-84l-47 270l-49 -270h-86z" />
<glyph unicode="_" horiz-adv-x="573" d="M0 -168h573v-92h-573v92z" />
<glyph unicode="`" horiz-adv-x="325" d="M66 1473h120l97 -273h-76z" />
<glyph unicode="a" horiz-adv-x="458" d="M45 322q0 71 11 129.5t35.5 109.5t71 81t111.5 32h15v262q0 30 -15 51t-49 21q-71 0 -71 -76v-166h-95v162q0 71 42.5 121.5t131.5 50.5q80 0 118 -49.5t38 -112.5v-678q0 -150 4 -260h-84q-6 36 -6 78h-4q-7 -42 -36.5 -68t-63.5 -26q-72 0 -113 83.5t-41 254.5z M143 330q0 -254 82 -254q31 0 47.5 40t16.5 87v385h-25q-52 0 -86.5 -62t-34.5 -196z" />
<glyph unicode="b" horiz-adv-x="497" d="M74 0v1460h100v-450h4q36 88 129 88q69 0 101 -46t32 -106v-792q0 -80 -40.5 -123t-112.5 -43q-41 0 -74 22t-47 56h-2v-66h-90zM174 195q0 -49 25.5 -83t66.5 -34q70 0 70 94v735q0 99 -76 99q-42 0 -64 -35t-22 -92v-684z" />
<glyph unicode="c" horiz-adv-x="473" d="M59 197v698q0 99 53.5 151t137.5 52q83 0 127.5 -51.5t44.5 -124.5v-160h-96v145q0 42 -19 69.5t-63 27.5q-43 0 -61.5 -27.5t-18.5 -67.5v-723q0 -104 80 -104q24 0 40.5 8.5t24.5 18t12 29t4.5 28.5t0.5 29v157h96v-174q0 -89 -47.5 -140.5t-134.5 -51.5q-89 0 -135 56 t-46 155z" />
<glyph unicode="d" horiz-adv-x="497" d="M59 141v791q0 70 41 118t109 48q70 0 110 -56h3v418h104v-1460h-94l-2 80h-4q-13 -36 -40 -58.5t-50 -29t-46 -6.5q-49 0 -80 26t-41 58t-10 71zM162 178q0 -98 76 -98q42 0 64 36t22 95v690q0 47 -23 76t-63 29q-76 0 -76 -101v-727z" />
<glyph unicode="e" horiz-adv-x="460" d="M59 211v672q0 99 47.5 157t135.5 58q86 0 127 -57.5t41 -147.5v-377h-246v-264q0 -85 25.5 -125.5t99.5 -40.5q42 0 100 20l25 -88q-72 -32 -150 -32q-205 0 -205 225zM164 606h143v289q0 106 -71 106q-72 0 -72 -106v-289z" />
<glyph unicode="f" horiz-adv-x="305" d="M35 995v86h63v250q0 60 35.5 98.5t102.5 38.5q39 0 59 -6v-86q-14 2 -49 2q-20 0 -32.5 -12.5t-12.5 -36.5v-248h75v-86h-75v-995h-103v995h-63z" />
<glyph unicode="g" horiz-adv-x="501" d="M63 184v734q0 89 40.5 134.5t111.5 45.5q38 0 71.5 -20.5t47.5 -57.5h2l2 63h90v-1192q0 -122 -59 -183.5t-162 -61.5q-79 0 -141 22l22 88q71 -16 119 -16q62 0 90.5 34.5t28.5 110.5v201h-4q-12 -39 -47.5 -60.5t-69.5 -21.5q-74 0 -108 51.5t-34 128.5zM166 199 q0 -22 5 -42.5t24 -39.5t49 -19q35 0 58.5 32t23.5 73v694q0 50 -24.5 81.5t-63.5 31.5q-72 0 -72 -105v-706z" />
<glyph unicode="h" horiz-adv-x="499" d="M74 0v1460h100v-444h2q40 82 135 82q53 0 89 -33t36 -96v-969h-102v930q0 76 -66 76q-94 0 -94 -125v-881h-100z" />
<glyph unicode="i" horiz-adv-x="247" d="M74 0v1081h100v-1081h-100zM74 1255v209h100v-209h-100z" />
<glyph unicode="j" horiz-adv-x="247" d="M4 -240h31q20 0 29.5 10.5t9.5 36.5v1274h98v-1290q0 -52 -25.5 -89.5t-83.5 -37.5q-32 0 -59 6v90zM74 1255v209h100v-209h-100z" />
<glyph unicode="k" horiz-adv-x="464" d="M74 0v1460h98v-868l168 489h98l-133 -376l123 -705h-102l-97 580l-57 -148v-432h-98z" />
<glyph unicode="l" horiz-adv-x="264" d="M74 90v1370h100v-1347q0 -23 25 -23q16 0 30 2v-90q-25 -10 -61 -10q-53 0 -73.5 25.5t-20.5 72.5z" />
<glyph unicode="m" horiz-adv-x="761" d="M74 0v1081h98v-67h2q43 84 137 84q41 0 73.5 -21t43.5 -63h4q44 84 141 84q53 0 89 -33.5t36 -97.5v-967h-102v930q0 76 -66 76q-90 0 -94 -113v-893h-102v930q0 76 -66 76q-94 0 -94 -125v-881h-100z" />
<glyph unicode="n" horiz-adv-x="499" d="M74 0v1081h98v-67h2q41 84 137 84q54 0 89.5 -32.5t35.5 -96.5v-969h-102v930q0 76 -66 76q-94 0 -94 -125v-881h-100z" />
<glyph unicode="o" horiz-adv-x="489" d="M59 199v700q0 96 53.5 147.5t135.5 51.5q80 0 131 -48.5t51 -138.5v-714q0 -106 -51 -158.5t-139 -52.5q-90 0 -135.5 55.5t-45.5 157.5zM164 186q0 -40 19.5 -72t60.5 -32q82 0 82 102v723q0 39 -20.5 68t-61.5 29q-42 0 -61 -28t-19 -65v-725z" />
<glyph unicode="p" horiz-adv-x="497" d="M74 -328v1409h96v-71h4q37 88 133 88q70 0 101.5 -46t31.5 -108v-794q0 -70 -41 -117t-110 -47q-73 0 -113 57h-2v-371h-100zM174 180q0 -46 22.5 -72t63.5 -26q76 0 76 96v729q0 99 -76 99q-42 0 -64 -35t-22 -92v-699z" />
<glyph unicode="q" horiz-adv-x="497" d="M59 150v792q0 59 41 107.5t113 48.5q90 0 125 -76h2l6 59h80v-1409h-102v375h-2q-19 -30 -54 -46.5t-69 -16.5q-67 0 -103.5 47t-36.5 119zM162 184q0 -106 76 -106q41 0 63.5 27.5t22.5 74.5v701q0 57 -21.5 91t-64.5 34q-76 0 -76 -97v-725z" />
<glyph unicode="r" horiz-adv-x="319" d="M74 0v1081h100v-63h2q12 29 40.5 49t57.5 20q17 0 25 -2v-116q-12 2 -35 2q-90 0 -90 -97v-874h-100z" />
<glyph unicode="s" horiz-adv-x="432" d="M45 283h96q2 -114 19 -160.5t59 -46.5q66 0 66 102q0 90 -52 213l-114 279q-64 144 -64 237q0 80 42 134.5t120 54.5q86 0 123 -65t39 -206h-88q-6 105 -24.5 146t-51.5 41q-32 0 -46.5 -31.5t-14.5 -73.5q0 -46 59 -192l92 -223q78 -189 78 -312q0 -80 -39.5 -136 t-118.5 -56q-56 0 -93 20.5t-55.5 62.5t-25 91t-6.5 121z" />
<glyph unicode="t" horiz-adv-x="313" d="M27 993v88h63v215h103v-215h102v-88h-102v-862q0 -39 32 -39q18 0 54 6v-92q-30 -12 -78 -12q-47 0 -79 24.5t-32 83.5v891h-63z" />
<glyph unicode="u" horiz-adv-x="499" d="M63 115v966h101v-929q0 -76 67 -76q95 0 95 125v880h100v-1081h-98v68h-2q-41 -84 -138 -84q-54 0 -89.5 33t-35.5 98z" />
<glyph unicode="v" horiz-adv-x="432" d="M25 1081h104l90 -835h4l86 835h99l-138 -1085h-106z" />
<glyph unicode="w" horiz-adv-x="686" d="M29 1081h108l68 -813h6l82 813h108l88 -813h7l61 813h100l-118 -1083h-95l-94 866h-6l-96 -866h-94z" />
<glyph unicode="x" horiz-adv-x="477" d="M37 0l151 547l-139 534h109l88 -413l98 413h90l-137 -524l143 -557h-100l-104 424l-107 -424h-92z" />
<glyph unicode="y" horiz-adv-x="425" d="M23 1081h102l96 -780h4l82 780h96l-149 -1185q-16 -119 -52.5 -178.5t-113.5 -59.5q-22 0 -55 4l2 90q18 -4 43 -4q10 0 18 1.5t21.5 8t23.5 24.5t13 46l22 166z" />
<glyph unicode="z" horiz-adv-x="368" d="M37 0v76l192 919h-190v86h291v-90l-189 -903h193v-88h-297z" />
<glyph unicode="{" horiz-adv-x="305" d="M29 588v82q53 5 53 80v577q0 61 29 97t84 36h67v-69h-55q-35 0 -35 -54v-569q0 -103 -72 -135v-6q72 -30 72 -135v-697q0 -53 35 -53h55v-70h-67q-113 0 -113 115v713q0 40 -11 62.5t-42 25.5z" />
<glyph unicode="|" horiz-adv-x="430" d="M174 -322v1782h80v-1782h-80z" />
<glyph unicode="}" horiz-adv-x="305" d="M29 -258h55q35 0 35 53v697q0 105 71 135v6q-71 31 -71 135v569q0 54 -35 54h-55v69h67q55 0 84 -36t29 -97v-577q0 -75 53 -80v-82q-31 -3 -42 -25.5t-11 -62.5v-713q0 -115 -113 -115h-67v70z" />
<glyph unicode="~" d="M61 580q14 147 103 147q29 0 96 -21.5t86 -21.5q21 0 29.5 12.5t11.5 40.5l64 -10q-3 -62 -28.5 -101.5t-70.5 -39.5q-32 0 -101 22.5t-81 22.5q-19 0 -29.5 -12.5t-17.5 -47.5z" />
<glyph unicode="&#xa1;" horiz-adv-x="266" d="M82 -291v590l14 500h72l16 -500v-590h-102zM84 967v202h98v-202h-98z" />
<glyph unicode="&#xa2;" horiz-adv-x="473" d="M59 217v682q0 86 39.5 135t106.5 60v129h84v-129q65 -11 99 -62t34 -121v-149h-96v145q0 42 -19 69.5t-63 27.5q-43 0 -61.5 -27.5t-18.5 -67.5v-702q0 -43 18 -74t62 -31q24 0 40.5 8.5t24.5 18t12 29t4.5 29t0.5 30.5v158h96v-176q0 -76 -34.5 -125t-98.5 -62v-133h-84 v131q-72 10 -109 64t-37 143z" />
<glyph unicode="&#xa3;" horiz-adv-x="585" d="M55 0v92h72v606h-70v95h70v467q0 106 62.5 162.5t158.5 56.5q93 0 145 -55.5t52 -131.5v-172h-105v154q0 108 -102 108t-102 -125v-464h159v-95h-159v-606h303l-17 -92h-467z" />
<glyph unicode="&#xa4;" horiz-adv-x="602" d="M61 899l54 51l55 -55q59 41 127 41q76 0 131 -41l59 59l52 -53l-58 -55q45 -64 45 -135q0 -69 -47 -131l60 -60l-52 -49l-57 57q-56 -39 -127 -39q-70 0 -131 37l-55 -59l-54 53l60 60q-45 60 -45 135q0 72 43 127q-24 21 -60 57zM150 707q0 -63 42 -108.5t107 -45.5 q70 0 111 43t41 119q0 69 -44 113t-104 44q-71 0 -112 -42.5t-41 -122.5z" />
<glyph unicode="&#xa5;" horiz-adv-x="452" d="M8 1462h111l114 -626l113 626h100l-161 -803h110v-94h-112v-565h-107v565h-117v94h115z" />
<glyph unicode="&#xa6;" d="M180 -76v709h82v-709h-82zM180 786v697h82v-697h-82z" />
<glyph unicode="&#xa7;" horiz-adv-x="538" d="M57 739q0 46 17 91.5t35.5 74t50.5 70.5q-97 88 -97 239q0 112 55 182t150 70q87 0 136 -64t49 -173v-82h-88v67q0 77 -27 120.5t-76 43.5q-47 0 -73.5 -39t-26.5 -114q0 -65 23.5 -117t62.5 -80l74 -55q147 -105 147 -248q0 -141 -92 -236q52 -38 79.5 -108t24.5 -148 q0 -108 -58.5 -177.5t-148.5 -69.5q-38 0 -73 14t-65.5 43.5t-49 82.5t-18.5 124v69h96v-59q0 -87 30.5 -136.5t81.5 -49.5q101 0 101 166q0 150 -101 206l-65 46q-154 95 -154 247zM156 745q0 -59 25.5 -97t56.5 -56l67 -47q66 70 66 174q0 100 -80 155l-60 44 q-29 -24 -52 -70.5t-23 -102.5z" />
<glyph unicode="&#xa8;" horiz-adv-x="423" d="M80 1208v250h90v-250h-90zM254 1208v250h90v-250h-90z" />
<glyph unicode="&#xa9;" horiz-adv-x="1075" d="M63 729q0 151 28 279.5t84.5 229t150 157.5t215.5 57q100 0 180.5 -40t134 -108t89.5 -161.5t51.5 -196.5t15.5 -217q0 -122 -16 -228.5t-52 -199.5t-90 -159t-134 -104t-179 -38q-129 0 -223.5 57t-149 159t-80 229.5t-25.5 283.5zM147 729q0 -307 102.5 -480 t291.5 -173q186 0 287.5 174.5t101.5 478.5q0 306 -98.5 479.5t-290.5 173.5q-195 0 -294.5 -173t-99.5 -480zM365 369v710q0 87 46 140t130 53q81 0 122.5 -50.5t41.5 -127.5v-244h-103v227q0 86 -61 86q-40 0 -53 -23.5t-13 -64.5v-690q0 -88 66 -88q61 0 61 90v221h103 v-225q0 -87 -42.5 -142t-121.5 -55q-86 0 -131 49.5t-45 133.5z" />
<glyph unicode="&#xaa;" horiz-adv-x="413" d="M68 1012q0 187 141 190h4v131q0 29 -29 29q-13 0 -20.5 -6t-8.5 -12t-1 -17v-80h-80v76q0 48 28 79.5t86 31.5t83.5 -30t25.5 -77v-356q0 -87 4 -133h-78q-4 37 -4 39q-10 -24 -27.5 -38t-35.5 -14q-40 0 -64 46.5t-24 140.5zM80 688v84h217v-84h-217zM150 1018 q0 -64 8 -90.5t26 -26.5q14 0 21.5 14t7.5 29v195h-8q-55 0 -55 -121z" />
<glyph unicode="&#xab;" horiz-adv-x="487" d="M43 571l131 238l70 -39l-92 -199l100 -198l-70 -43zM238 571l133 236l67 -41l-92 -195l98 -194l-69 -43z" />
<glyph unicode="&#xac;" horiz-adv-x="598" d="M45 592v82h508v-271h-82v189h-426z" />
<glyph unicode="&#xad;" horiz-adv-x="333" d="M43 569v99h248v-99h-248z" />
<glyph unicode="&#xae;" horiz-adv-x="647" d="M45 1079q0 194 74 314t209 120q124 0 200 -121t76 -313q0 -187 -73 -309.5t-209 -122.5q-89 0 -153 59t-94 155t-30 218zM115 1079q0 -170 59.5 -270t149.5 -98q96 2 151 99t55 269q0 170 -60 271.5t-148 101.5q-87 0 -147 -101t-60 -272zM223 791v587h92q117 0 117 -168 q0 -110 -47 -145l57 -274h-80l-47 256h-18v-256h-74zM297 1108h20q22 0 29.5 23.5t7.5 70.5q0 107 -41 107h-16v-201z" />
<glyph unicode="&#xaf;" horiz-adv-x="446" d="M84 1260v96h278v-96h-278z" />
<glyph unicode="&#xb0;" horiz-adv-x="370" d="M51 1333q0 59 38.5 100.5t94.5 41.5q57 0 96 -41.5t39 -100.5q0 -60 -39 -100.5t-96 -40.5t-95 40.5t-38 100.5zM113 1333q0 -34 21 -58t50 -24q30 0 52 24.5t22 57.5t-22 57.5t-52 24.5q-29 0 -50 -24t-21 -58z" />
<glyph unicode="&#xb1;" d="M51 649v88h166v195h78l-2 -195h168v-88h-166v-190h-78v190h-166zM53 285v88h406v-88h-406z" />
<glyph unicode="&#xb2;" horiz-adv-x="348" d="M53 778v62l84 211q70 191 70 338v22q0 107 -37 107q-33 0 -33 -82v-66h-82v64q0 73 28.5 118t88.5 45q123 0 123 -192q0 -76 -15.5 -155.5t-29.5 -122.5t-45 -128l-58 -143h150v-78h-244z" />
<glyph unicode="&#xb3;" horiz-adv-x="350" d="M49 965v32h86v-43q0 -114 37 -114q22 0 30.5 37t8.5 124q0 148 -59 148h-39v86h43q31 0 41 33.5t10 115.5q0 78 -8 107t-29 29q-12 0 -20 -8.5t-11 -27.5t-3.5 -32t-0.5 -37v-45h-82v51q0 176 123 176q57 0 88 -56.5t31 -149.5q0 -159 -70 -193v-4q74 -33 74 -201 q0 -231 -127 -231q-37 0 -62.5 16.5t-38 47.5t-17.5 63.5t-5 75.5z" />
<glyph unicode="&#xb4;" horiz-adv-x="329" d="M78 1200l96 273h119l-139 -273h-76z" />
<glyph unicode="&#xb5;" horiz-adv-x="499" d="M63 -365v1446h103v-927q0 -37 19 -57.5t51 -20.5q90 0 90 133v872h102v-905q0 -52 25 -63v-117q-37 3 -64 27.5t-31 66.5q-34 -104 -118 -104q-32 0 -58.5 18t-34.5 59l-8 -2l27 -395z" />
<glyph unicode="&#xb6;" horiz-adv-x="618" d="M55 971q0 92 8.5 164.5t29 134.5t53.5 103t84.5 64t119.5 23h225v-74h-65v-1484h-74v1484h-100v-1484h-76v649q-101 38 -153 146.5t-52 273.5z" />
<glyph unicode="&#xb7;" horiz-adv-x="243" d="M74 586v202h96v-202h-96z" />
<glyph unicode="&#xb8;" horiz-adv-x="317" d="M18 -233q72 -11 93 -11q65 0 65 49q0 23 -18.5 32.5t-59.5 12.5l-35 3l37 174h62l-27 -117q135 -9 135 -107q0 -56 -42 -86t-103 -30q-62 0 -107 12v68z" />
<glyph unicode="&#xb9;" horiz-adv-x="323" d="M61 1544l95 58h55v-824h-84v725l-45 -18z" />
<glyph unicode="&#xba;" horiz-adv-x="376" d="M66 952v363q0 55 34.5 87t89.5 32q53 0 87 -30.5t34 -84.5v-369q0 -60 -33.5 -91.5t-93.5 -31.5q-58 0 -88 33t-30 92zM80 688v82h221v-82h-221zM147 944q0 -18 9.5 -32.5t29.5 -14.5q43 0 43 47v373q0 19 -10.5 32t-32.5 13q-20 0 -29.5 -13t-9.5 -30v-375z" />
<glyph unicode="&#xbb;" horiz-adv-x="487" d="M43 766l70 43l137 -238l-133 -235l-68 39l92 196zM238 768l67 43l139 -240l-131 -239l-69 41l92 198z" />
<glyph unicode="&#xbc;" horiz-adv-x="782" d="M70 1413l94 57h55v-823h-84v725l-45 -18zM168 0l352 1460h70l-348 -1460h-74zM446 215v70l134 536h84l-140 -532h80v176l76 72v-248h43v-74h-43v-215h-76v215h-158z" />
<glyph unicode="&#xbd;" horiz-adv-x="782" d="M70 1413l94 57h55v-823h-84v725l-45 -18zM137 0l352 1460h70l-348 -1460h-74zM465 0v61l84 211q69 188 69 338v23q0 106 -36 106q-33 0 -33 -82v-65h-82v63q0 73 28.5 118.5t88.5 45.5q123 0 123 -192q0 -58 -6.5 -111t-23.5 -111.5t-26.5 -87t-34.5 -96.5l-57 -143h150 v-78h-244z" />
<glyph unicode="&#xbe;" horiz-adv-x="782" d="M27 834v32h86v-43q0 -114 37 -114q22 0 30 36.5t8 124.5q0 148 -59 148h-39v86h43q31 0 41 33.5t10 115.5q0 78 -8 107t-29 29q-12 0 -20 -8.5t-10.5 -28t-3 -31t-0.5 -37.5v-45h-82v51q0 176 123 176q57 0 87.5 -56t30.5 -150q0 -159 -69 -193v-4q73 -32 73 -201 q0 -231 -126 -231q-37 0 -62.5 16.5t-38 47.5t-17.5 63.5t-5 75.5zM174 0l352 1460h70l-348 -1460h-74zM449 215v70l133 536h84l-140 -532h80v176l76 72v-248h43v-74h-43v-215h-76v215h-157z" />
<glyph unicode="&#xbf;" horiz-adv-x="464" d="M61 43q0 78 14.5 153t29.5 115.5t42 106.5q56 143 56 252v129h92v-82q0 -109 -17.5 -188t-48.5 -160q-21 -53 -33 -89t-22 -97t-10 -132v-34.5v-40t0.5 -38.5t3 -40.5t6 -36t9.5 -33t14 -24t19.5 -18t25.5 -5.5q24 0 39 14.5t21.5 44.5t8.5 58t2 73v123h93v-104 q0 -150 -39 -227.5t-134 -77.5q-172 0 -172 358zM199 965v200h96v-200h-96z" />
<glyph unicode="&#xc0;" horiz-adv-x="604" d="M41 0l184 1462h158l180 -1462h-108l-58 479h-198l-58 -479h-100zM133 1845h121l96 -272h-76zM211 578h174l-84 745h-6z" />
<glyph unicode="&#xc1;" horiz-adv-x="604" d="M41 0l184 1462h158l180 -1462h-108l-58 479h-198l-58 -479h-100zM211 578h174l-84 745h-6zM260 1573l96 272h119l-139 -272h-76z" />
<glyph unicode="&#xc2;" horiz-adv-x="604" d="M41 0l184 1462h158l180 -1462h-108l-58 479h-198l-58 -479h-100zM158 1573l108 272h78l102 -272h-88l-57 166l-57 -166h-86zM211 578h174l-84 745h-6z" />
<glyph unicode="&#xc3;" horiz-adv-x="604" d="M41 0l184 1462h158l180 -1462h-108l-58 479h-198l-58 -479h-100zM135 1610q6 63 31 101t67 38q25 0 70 -20.5t62 -20.5t24 10.5t12 38.5l64 -12q-3 -57 -29.5 -95t-66.5 -38q-27 0 -73 20.5t-58 20.5q-17 0 -26 -10.5t-15 -43.5zM211 578h174l-84 745h-6z" />
<glyph unicode="&#xc4;" horiz-adv-x="604" d="M41 0l184 1462h158l180 -1462h-108l-58 479h-198l-58 -479h-100zM170 1581v250h90v-250h-90zM211 578h174l-84 745h-6zM344 1581v250h90v-250h-90z" />
<glyph unicode="&#xc5;" horiz-adv-x="604" d="M41 0l184 1462h158l180 -1462h-108l-58 479h-198l-58 -479h-100zM164 1706q0 61 38.5 104t100.5 43q66 0 102.5 -39t36.5 -98q0 -64 -40 -106.5t-99 -42.5q-66 0 -102.5 41t-36.5 98zM211 578h174l-84 745h-6zM231 1708q0 -35 20 -57.5t52 -22.5q34 0 53 23t19 61 q0 33 -17 57.5t-55 24.5q-37 0 -54.5 -23.5t-17.5 -62.5z" />
<glyph unicode="&#xc6;" horiz-adv-x="735" d="M27 0l262 1460h399v-100h-215v-539h178v-100h-178v-623h219v-98h-323v535h-146l-92 -535h-104zM238 621h131v739h-4z" />
<glyph unicode="&#xc7;" horiz-adv-x="522" d="M59 195v1060q0 103 53.5 165.5t159.5 62.5q99 0 149 -60.5t50 -146.5v-254h-98v235q0 125 -103 125q-35 0 -57.5 -10.5t-32 -31.5t-12 -40.5t-2.5 -50.5v-1034q0 -61 26 -96t78 -35q103 0 103 133v229h98v-231q0 -101 -51.5 -165t-147.5 -64h-2l-16 -76q135 -9 135 -107 q0 -56 -42 -86t-103 -30q-62 0 -107 12v68q71 -11 92 -11q66 0 66 49q0 23 -18.5 32.5t-59.5 12.5l-35 3l29 139q-75 13 -113.5 67.5t-38.5 135.5z" />
<glyph unicode="&#xc8;" horiz-adv-x="440" d="M74 0v1460h317v-100h-213v-537h178v-100h-178v-625h217v-98h-321zM117 1845h121l96 -272h-76z" />
<glyph unicode="&#xc9;" horiz-adv-x="440" d="M74 0v1460h317v-100h-213v-537h178v-100h-178v-625h217v-98h-321zM178 1573l96 272h119l-139 -272h-76z" />
<glyph unicode="&#xca;" horiz-adv-x="440" d="M74 0v1460h317v-100h-213v-537h178v-100h-178v-625h217v-98h-321zM90 1573l109 272h77l103 -272h-88l-58 166l-57 -166h-86z" />
<glyph unicode="&#xcb;" horiz-adv-x="440" d="M74 0v1460h317v-100h-213v-537h178v-100h-178v-625h217v-98h-321zM102 1581v250h91v-250h-91zM276 1581v250h91v-250h-91z" />
<glyph unicode="&#xcc;" horiz-adv-x="251" d="M-53 1845h121l96 -272h-76zM74 0v1460h106v-1460h-106z" />
<glyph unicode="&#xcd;" horiz-adv-x="251" d="M74 0v1460h106v-1460h-106zM88 1573l96 272h119l-139 -272h-76z" />
<glyph unicode="&#xce;" horiz-adv-x="251" d="M-16 1573l108 272h78l102 -272h-88l-57 166l-57 -166h-86zM74 0v1460h106v-1460h-106z" />
<glyph unicode="&#xcf;" horiz-adv-x="251" d="M-4 1581v250h90v-250h-90zM74 0v1460h106v-1460h-106zM170 1581v250h90v-250h-90z" />
<glyph unicode="&#xd0;" horiz-adv-x="552" d="M35 721v90h55v649h195q91 0 150 -51.5t59 -148.5v-1031q0 -116 -60 -172.5t-160 -56.5h-184v721h-55zM197 98h75q34 0 58 12.5t35.5 33t16.5 40.5t5 41v1026q0 48 -29.5 78.5t-85.5 30.5h-75v-549h112v-90h-112v-623z" />
<glyph unicode="&#xd1;" horiz-adv-x="575" d="M74 0v1460h133l196 -1073h5v1073h94v-1460h-115l-217 1190h-4v-1190h-92zM121 1610q6 63 31 101t67 38q25 0 69.5 -20.5t61.5 -20.5q18 0 25 11t12 38l64 -12q-3 -57 -30 -95t-67 -38q-27 0 -73 20.5t-58 20.5q-17 0 -26 -10.5t-15 -43.5z" />
<glyph unicode="&#xd2;" horiz-adv-x="540" d="M59 221v1039q0 106 59.5 162.5t155.5 56.5q93 0 150 -53t57 -152v-1055q0 -117 -57.5 -175t-157.5 -58q-207 0 -207 235zM90 1845h121l96 -272h-76zM168 207q0 -47 24 -85t78 -38q103 0 103 127v1061q0 47 -25 76.5t-78 29.5q-55 0 -78.5 -31t-23.5 -73v-1067z" />
<glyph unicode="&#xd3;" horiz-adv-x="540" d="M59 221v1039q0 106 59.5 162.5t155.5 56.5q93 0 150 -53t57 -152v-1055q0 -117 -57.5 -175t-157.5 -58q-207 0 -207 235zM168 207q0 -47 24 -85t78 -38q103 0 103 127v1061q0 47 -25 76.5t-78 29.5q-55 0 -78.5 -31t-23.5 -73v-1067zM225 1573l97 272h118l-139 -272h-76z " />
<glyph unicode="&#xd4;" horiz-adv-x="540" d="M59 221v1039q0 106 59.5 162.5t155.5 56.5q93 0 150 -53t57 -152v-1055q0 -117 -57.5 -175t-157.5 -58q-207 0 -207 235zM125 1573l108 272h78l103 -272h-88l-58 166l-57 -166h-86zM168 207q0 -47 24 -85t78 -38q103 0 103 127v1061q0 47 -25 76.5t-78 29.5 q-55 0 -78.5 -31t-23.5 -73v-1067z" />
<glyph unicode="&#xd5;" horiz-adv-x="540" d="M59 221v1039q0 106 59.5 162.5t155.5 56.5q93 0 150 -53t57 -152v-1055q0 -117 -57.5 -175t-157.5 -58q-207 0 -207 235zM102 1610q6 63 31.5 101t67.5 38q25 0 69.5 -20.5t61.5 -20.5q18 0 25 11t12 38l63 -12q-3 -57 -29.5 -95t-66.5 -38q-27 0 -73 20.5t-58 20.5 q-17 0 -26 -10.5t-15 -43.5zM168 207q0 -47 24 -85t78 -38q103 0 103 127v1061q0 47 -25 76.5t-78 29.5q-55 0 -78.5 -31t-23.5 -73v-1067z" />
<glyph unicode="&#xd6;" horiz-adv-x="540" d="M59 221v1039q0 106 59.5 162.5t155.5 56.5q93 0 150 -53t57 -152v-1055q0 -117 -57.5 -175t-157.5 -58q-207 0 -207 235zM137 1581v250h90v-250h-90zM168 207q0 -47 24 -85t78 -38q103 0 103 127v1061q0 47 -25 76.5t-78 29.5q-55 0 -78.5 -31t-23.5 -73v-1067zM311 1581 v250h90v-250h-90z" />
<glyph unicode="&#xd7;" d="M41 504l158 158l-158 157l57 58l158 -158l158 158l57 -56l-160 -157l158 -160l-55 -58l-158 158l-158 -160z" />
<glyph unicode="&#xd8;" horiz-adv-x="540" d="M59 221v1039q0 106 59.5 162.5t155.5 56.5q61 0 109 -25l18 88l72 -12l-27 -131q35 -50 35 -125v-1055q0 -117 -57.5 -175t-157.5 -58q-53 0 -96 16l-14 -74l-76 13l22 114q-43 58 -43 166zM168 377l190 954q-23 47 -88 47q-55 0 -78.5 -31t-23.5 -73v-897zM193 121 q26 -37 77 -37q103 0 103 127v813z" />
<glyph unicode="&#xd9;" horiz-adv-x="534" d="M66 199v1261h106v-1253q0 -131 96 -131q32 0 53.5 12t31 34.5t13 44t3.5 50.5v1243h100v-1241q0 -109 -50.5 -173t-154.5 -64q-98 0 -148 58t-50 159zM90 1845h121l96 -272h-76z" />
<glyph unicode="&#xda;" horiz-adv-x="534" d="M66 199v1261h106v-1253q0 -131 96 -131q32 0 53.5 12t31 34.5t13 44t3.5 50.5v1243h100v-1241q0 -109 -50.5 -173t-154.5 -64q-98 0 -148 58t-50 159zM229 1573l97 272h118l-139 -272h-76z" />
<glyph unicode="&#xdb;" horiz-adv-x="534" d="M66 199v1261h106v-1253q0 -131 96 -131q32 0 53.5 12t31 34.5t13 44t3.5 50.5v1243h100v-1241q0 -109 -50.5 -173t-154.5 -64q-98 0 -148 58t-50 159zM121 1573l108 272h78l103 -272h-88l-58 166l-57 -166h-86z" />
<glyph unicode="&#xdc;" horiz-adv-x="534" d="M66 199v1261h106v-1253q0 -131 96 -131q32 0 53.5 12t31 34.5t13 44t3.5 50.5v1243h100v-1241q0 -109 -50.5 -173t-154.5 -64q-98 0 -148 58t-50 159zM133 1581v250h90v-250h-90zM307 1581v250h90v-250h-90z" />
<glyph unicode="&#xdd;" horiz-adv-x="509" d="M37 1460h110l115 -624l113 624h100l-164 -813v-647h-106v651zM209 1573l96 272h119l-139 -272h-76z" />
<glyph unicode="&#xde;" horiz-adv-x="526" d="M74 0v1460h106v-311h51q60 0 103 -20t70 -53.5t42.5 -87t21 -111.5t5.5 -136q0 -422 -240 -422h-53v-319h-106zM180 422h56q76 0 104.5 78.5t28.5 244.5q0 43 -0.5 69.5t-3.5 62t-8.5 56.5t-16 45t-25.5 36.5t-37 21t-51 8.5h-47v-622z" />
<glyph unicode="&#xdf;" horiz-adv-x="550" d="M74 995v86h63v93q0 140 47.5 215t139.5 75q85 0 126.5 -75t41.5 -199q0 -198 -91 -434v-2q108 -227 105 -447q0 -41 -2 -74t-8 -71t-18 -66.5t-29 -52.5t-44.5 -36.5t-62.5 -12.5q-37 0 -68 10l2 76h41q30 0 49.5 19.5t27.5 56.5t10 65t2 70q0 114 -25.5 228.5 t-75.5 195.5v71h17q69 240 69 385q0 203 -72 203q-25 0 -41.5 -16.5t-24.5 -48t-10.5 -63t-2.5 -75.5v-1171h-103v995h-63z" />
<glyph unicode="&#xe0;" horiz-adv-x="458" d="M45 322q0 71 11 129.5t35.5 109.5t71 81t111.5 32h15v262q0 30 -15 51t-49 21q-71 0 -71 -76v-166h-95v162q0 71 42.5 121.5t131.5 50.5q80 0 118 -49.5t38 -112.5v-678q0 -150 4 -260h-84q-6 36 -6 78h-4q-7 -42 -36.5 -68t-63.5 -26q-72 0 -113 83.5t-41 254.5z M66 1473h120l97 -273h-76zM143 330q0 -254 82 -254q31 0 47.5 40t16.5 87v385h-25q-52 0 -86.5 -62t-34.5 -196z" />
<glyph unicode="&#xe1;" horiz-adv-x="458" d="M45 322q0 71 11 129.5t35.5 109.5t71 81t111.5 32h15v262q0 30 -15 51t-49 21q-71 0 -71 -76v-166h-95v162q0 71 42.5 121.5t131.5 50.5q80 0 118 -49.5t38 -112.5v-678q0 -150 4 -260h-84q-6 36 -6 78h-4q-7 -42 -36.5 -68t-63.5 -26q-72 0 -113 83.5t-41 254.5z M143 330q0 -254 82 -254q31 0 47.5 40t16.5 87v385h-25q-52 0 -86.5 -62t-34.5 -196zM176 1200l96 273h119l-139 -273h-76z" />
<glyph unicode="&#xe2;" horiz-adv-x="458" d="M45 322q0 71 11 129.5t35.5 109.5t71 81t111.5 32h15v262q0 30 -15 51t-49 21q-71 0 -71 -76v-166h-95v162q0 71 42.5 121.5t131.5 50.5q80 0 118 -49.5t38 -112.5v-678q0 -150 4 -260h-84q-6 36 -6 78h-4q-7 -42 -36.5 -68t-63.5 -26q-72 0 -113 83.5t-41 254.5z M84 1200l109 273h77l103 -273h-88l-58 166l-57 -166h-86zM143 330q0 -254 82 -254q31 0 47.5 40t16.5 87v385h-25q-52 0 -86.5 -62t-34.5 -196z" />
<glyph unicode="&#xe3;" horiz-adv-x="458" d="M45 322q0 71 11 129.5t35.5 109.5t71 81t111.5 32h15v262q0 30 -15 51t-49 21q-71 0 -71 -76v-166h-95v162q0 71 42.5 121.5t131.5 50.5q80 0 118 -49.5t38 -112.5v-678q0 -150 4 -260h-84q-6 36 -6 78h-4q-7 -42 -36.5 -68t-63.5 -26q-72 0 -113 83.5t-41 254.5z M66 1237q6 63 31 101t67 38q25 0 69.5 -20.5t61.5 -20.5q18 0 25 11t12 38l63 -12q-3 -57 -29.5 -95t-66.5 -38q-27 0 -73 20.5t-58 20.5q-17 0 -26 -10t-15 -43zM143 330q0 -254 82 -254q31 0 47.5 40t16.5 87v385h-25q-52 0 -86.5 -62t-34.5 -196z" />
<glyph unicode="&#xe4;" horiz-adv-x="458" d="M45 322q0 71 11 129.5t35.5 109.5t71 81t111.5 32h15v262q0 30 -15 51t-49 21q-71 0 -71 -76v-166h-95v162q0 71 42.5 121.5t131.5 50.5q80 0 118 -49.5t38 -112.5v-678q0 -150 4 -260h-84q-6 36 -6 78h-4q-7 -42 -36.5 -68t-63.5 -26q-72 0 -113 83.5t-41 254.5z M96 1208v250h90v-250h-90zM143 330q0 -254 82 -254q31 0 47.5 40t16.5 87v385h-25q-52 0 -86.5 -62t-34.5 -196zM270 1208v250h90v-250h-90z" />
<glyph unicode="&#xe5;" horiz-adv-x="458" d="M45 322q0 71 11 129.5t35.5 109.5t71 81t111.5 32h15v262q0 30 -15 51t-49 21q-71 0 -71 -76v-166h-95v162q0 71 42.5 121.5t131.5 50.5q80 0 118 -49.5t38 -112.5v-678q0 -150 4 -260h-84q-6 36 -6 78h-4q-7 -42 -36.5 -68t-63.5 -26q-72 0 -113 83.5t-41 254.5z M88 1333q0 61 38.5 104.5t100.5 43.5q66 0 103 -39.5t37 -98.5q0 -64 -40.5 -106.5t-99.5 -42.5q-66 0 -102.5 41t-36.5 98zM143 330q0 -254 82 -254q31 0 47.5 40t16.5 87v385h-25q-52 0 -86.5 -62t-34.5 -196zM156 1335q0 -36 19.5 -58t51.5 -22q34 0 53 23t19 61 q0 33 -17 57.5t-55 24.5q-71 0 -71 -86z" />
<glyph unicode="&#xe6;" horiz-adv-x="692" d="M45 322q0 71 11 129.5t35.5 109.5t71 81t111.5 32h15v262q0 30 -15 51t-49 21q-71 0 -71 -76v-166h-95v162q0 71 42.5 121.5t131.5 50.5q71 0 115 -51q46 49 127 49q83 0 124.5 -57t41.5 -146v-379h-248v-264q0 -84 26.5 -125t100.5 -41q39 0 101 20l24 -88 q-66 -32 -151 -32q-116 0 -166 86q-41 -88 -129 -88q-71 0 -112.5 84t-41.5 254zM143 330q0 -254 82 -254q30 0 47 30t17 80v402h-25q-52 0 -86.5 -62t-34.5 -196zM393 606h146v289q0 106 -72 106q-74 0 -74 -106v-289z" />
<glyph unicode="&#xe7;" horiz-adv-x="473" d="M59 197v698q0 99 53.5 151t137.5 52q83 0 127.5 -51.5t44.5 -124.5v-160h-96v145q0 42 -19 69.5t-63 27.5q-43 0 -61.5 -27.5t-18.5 -67.5v-723q0 -104 80 -104q24 0 40.5 8.5t24.5 18t12 29t4.5 28.5t0.5 29v157h96v-174q0 -80 -39.5 -130.5t-110.5 -59.5l-16 -78 q135 -9 135 -107q0 -56 -42 -86t-103 -30q-62 0 -107 12v68q71 -11 92 -11q66 0 66 49q0 23 -18.5 32.5t-59.5 12.5l-35 3l29 135q-77 7 -115.5 61.5t-38.5 147.5z" />
<glyph unicode="&#xe8;" horiz-adv-x="460" d="M59 211v672q0 99 47.5 157t135.5 58q86 0 127 -57.5t41 -147.5v-377h-246v-264q0 -85 25.5 -125.5t99.5 -40.5q42 0 100 20l25 -88q-72 -32 -150 -32q-205 0 -205 225zM66 1473h120l97 -273h-76zM164 606h143v289q0 106 -71 106q-72 0 -72 -106v-289z" />
<glyph unicode="&#xe9;" horiz-adv-x="460" d="M59 211v672q0 99 47.5 157t135.5 58q86 0 127 -57.5t41 -147.5v-377h-246v-264q0 -85 25.5 -125.5t99.5 -40.5q42 0 100 20l25 -88q-72 -32 -150 -32q-205 0 -205 225zM164 606h143v289q0 106 -71 106q-72 0 -72 -106v-289zM197 1200l96 273h119l-140 -273h-75z" />
<glyph unicode="&#xea;" horiz-adv-x="460" d="M59 211v672q0 99 47.5 157t135.5 58q86 0 127 -57.5t41 -147.5v-377h-246v-264q0 -85 25.5 -125.5t99.5 -40.5q42 0 100 20l25 -88q-72 -32 -150 -32q-205 0 -205 225zM86 1200l109 273h77l103 -273h-88l-58 166l-57 -166h-86zM164 606h143v289q0 106 -71 106 q-72 0 -72 -106v-289z" />
<glyph unicode="&#xeb;" horiz-adv-x="460" d="M59 211v672q0 99 47.5 157t135.5 58q86 0 127 -57.5t41 -147.5v-377h-246v-264q0 -85 25.5 -125.5t99.5 -40.5q42 0 100 20l25 -88q-72 -32 -150 -32q-205 0 -205 225zM111 1208v250h90v-250h-90zM164 606h143v289q0 106 -71 106q-72 0 -72 -106v-289zM285 1208v250h90 v-250h-90z" />
<glyph unicode="&#xec;" horiz-adv-x="247" d="M-66 1473h121l97 -273h-76zM74 0v1081h100v-1081h-100z" />
<glyph unicode="&#xed;" horiz-adv-x="247" d="M74 0v1081h100v-1081h-100zM90 1200l96 273h119l-139 -273h-76z" />
<glyph unicode="&#xee;" horiz-adv-x="247" d="M-20 1200l108 273h78l102 -273h-88l-57 166l-57 -166h-86zM74 0v1081h100v-1081h-100z" />
<glyph unicode="&#xef;" horiz-adv-x="247" d="M-8 1208v250h90v-250h-90zM74 0v1081h100v-1081h-100zM166 1208v250h90v-250h-90z" />
<glyph unicode="&#xf0;" horiz-adv-x="487" d="M51 1282l92 21l-73 147l106 20l74 -145l121 31l28 -74l-114 -27l118 -239q27 -56 27 -121v-698q0 -106 -51 -158.5t-139 -52.5q-91 0 -137 55.5t-46 157.5v700q0 93 51 144.5t130 54.5h12l-70 135l-98 -21zM164 186q0 -40 18.5 -72t61.5 -32q82 0 82 102v723 q0 39 -20.5 68t-61.5 29q-43 0 -61.5 -28t-18.5 -65v-725z" />
<glyph unicode="&#xf1;" horiz-adv-x="499" d="M74 0v1081h98v-67h2q41 84 137 84q54 0 89.5 -32.5t35.5 -96.5v-969h-102v930q0 76 -66 76q-94 0 -94 -125v-881h-100zM86 1237q6 63 31 101t67 38q25 0 69.5 -20.5t61.5 -20.5q18 0 25 11t12 38l64 -12q-3 -57 -30 -95t-67 -38q-27 0 -73 20.5t-58 20.5q-17 0 -26 -10 t-15 -43z" />
<glyph unicode="&#xf2;" horiz-adv-x="489" d="M59 199v700q0 96 53.5 147.5t135.5 51.5q80 0 131 -48.5t51 -138.5v-714q0 -106 -51 -158.5t-139 -52.5q-90 0 -135.5 55.5t-45.5 157.5zM61 1473h121l97 -273h-76zM164 186q0 -40 19.5 -72t60.5 -32q82 0 82 102v723q0 39 -20.5 68t-61.5 29q-42 0 -61 -28t-19 -65v-725 z" />
<glyph unicode="&#xf3;" horiz-adv-x="489" d="M59 199v700q0 96 53.5 147.5t135.5 51.5q80 0 131 -48.5t51 -138.5v-714q0 -106 -51 -158.5t-139 -52.5q-90 0 -135.5 55.5t-45.5 157.5zM164 186q0 -40 19.5 -72t60.5 -32q82 0 82 102v723q0 39 -20.5 68t-61.5 29q-42 0 -61 -28t-19 -65v-725zM201 1200l96 273h119 l-140 -273h-75z" />
<glyph unicode="&#xf4;" horiz-adv-x="489" d="M59 199v700q0 96 53.5 147.5t135.5 51.5q80 0 131 -48.5t51 -138.5v-714q0 -106 -51 -158.5t-139 -52.5q-90 0 -135.5 55.5t-45.5 157.5zM98 1200l109 273h78l102 -273h-88l-57 166l-58 -166h-86zM164 186q0 -40 19.5 -72t60.5 -32q82 0 82 102v723q0 39 -20.5 68 t-61.5 29q-42 0 -61 -28t-19 -65v-725z" />
<glyph unicode="&#xf5;" horiz-adv-x="489" d="M59 199v700q0 96 53.5 147.5t135.5 51.5q80 0 131 -48.5t51 -138.5v-714q0 -106 -51 -158.5t-139 -52.5q-90 0 -135.5 55.5t-45.5 157.5zM80 1237q6 63 31 101t67 38q25 0 69.5 -20.5t61.5 -20.5q18 0 25 11t12 38l64 -12q-3 -57 -30 -95t-67 -38q-27 0 -73 20.5 t-58 20.5q-17 0 -26 -10t-15 -43zM164 186q0 -40 19.5 -72t60.5 -32q82 0 82 102v723q0 39 -20.5 68t-61.5 29q-42 0 -61 -28t-19 -65v-725z" />
<glyph unicode="&#xf6;" horiz-adv-x="489" d="M59 199v700q0 96 53.5 147.5t135.5 51.5q80 0 131 -48.5t51 -138.5v-714q0 -106 -51 -158.5t-139 -52.5q-90 0 -135.5 55.5t-45.5 157.5zM111 1208v250h90v-250h-90zM164 186q0 -40 19.5 -72t60.5 -32q82 0 82 102v723q0 39 -20.5 68t-61.5 29q-42 0 -61 -28t-19 -65 v-725zM285 1208v250h90v-250h-90z" />
<glyph unicode="&#xf7;" d="M55 614v86h402v-86h-402zM213 344v174h84v-174h-84zM213 784v177h84v-177h-84z" />
<glyph unicode="&#xf8;" horiz-adv-x="489" d="M59 199v700q0 96 53.5 147.5t135.5 51.5q50 0 94 -21l14 64l62 -8l-23 -103q35 -51 35 -119v-714q0 -106 -51 -158.5t-139 -52.5q-46 0 -76 12l-14 -66l-62 11l21 92q-50 53 -50 164zM164 283l151 675q-22 46 -71 46q-42 0 -61 -28t-19 -65v-628zM188 106q21 -24 56 -24 q82 0 82 102v537z" />
<glyph unicode="&#xf9;" horiz-adv-x="499" d="M63 115v966h101v-929q0 -76 67 -76q95 0 95 125v880h100v-1081h-98v68h-2q-41 -84 -138 -84q-54 0 -89.5 33t-35.5 98zM66 1473h120l97 -273h-76z" />
<glyph unicode="&#xfa;" horiz-adv-x="499" d="M63 115v966h101v-929q0 -76 67 -76q95 0 95 125v880h100v-1081h-98v68h-2q-41 -84 -138 -84q-54 0 -89.5 33t-35.5 98zM199 1200l96 273h119l-140 -273h-75z" />
<glyph unicode="&#xfb;" horiz-adv-x="499" d="M63 115v966h101v-929q0 -76 67 -76q95 0 95 125v880h100v-1081h-98v68h-2q-41 -84 -138 -84q-54 0 -89.5 33t-35.5 98zM104 1200l109 273h78l102 -273h-88l-57 166l-58 -166h-86z" />
<glyph unicode="&#xfc;" horiz-adv-x="499" d="M63 115v966h101v-929q0 -76 67 -76q95 0 95 125v880h100v-1081h-98v68h-2q-41 -84 -138 -84q-54 0 -89.5 33t-35.5 98zM117 1208v250h90v-250h-90zM291 1208v250h90v-250h-90z" />
<glyph unicode="&#xfd;" horiz-adv-x="425" d="M23 1081h102l96 -780h4l82 780h96l-149 -1185q-16 -119 -52.5 -178.5t-113.5 -59.5q-22 0 -55 4l2 90q18 -4 43 -4q10 0 18 1.5t21.5 8t23.5 24.5t13 46l22 166zM176 1200l96 273h119l-139 -273h-76z" />
<glyph unicode="&#xfe;" horiz-adv-x="497" d="M74 -328v1788h98v-448h4q36 86 131 86q48 0 79.5 -25.5t42.5 -58.5t11 -72v-792q0 -70 -41 -117t-110 -47t-113 55h-2v-369h-100zM174 180q0 -46 22.5 -72t63.5 -26q76 0 76 96v731q0 97 -76 97q-42 0 -64 -43.5t-22 -104.5v-678z" />
<glyph unicode="&#xff;" horiz-adv-x="425" d="M23 1081h102l96 -780h4l82 780h96l-149 -1185q-16 -119 -52.5 -178.5t-113.5 -59.5q-22 0 -55 4l2 90q18 -4 43 -4q10 0 18 1.5t21.5 8t23.5 24.5t13 46l22 166zM82 1208v250h90v-250h-90zM256 1208v250h90v-250h-90z" />
<glyph unicode="&#x152;" horiz-adv-x="745" d="M59 223v1034q0 107 57 164.5t152 57.5q68 0 111 -37v18h317v-100h-215v-537h181v-100h-181v-625h219v-98h-321v39q-20 -18 -56 -34.5t-75 -16.5q-102 0 -145.5 58.5t-43.5 176.5zM168 209q0 -47 24.5 -85t79.5 -38q103 0 103 127v1057q0 48 -25.5 78t-79.5 30t-78 -31.5 t-24 -72.5v-1065z" />
<glyph unicode="&#x153;" horiz-adv-x="729" d="M59 199v700q0 96 53.5 147.5t135.5 51.5q75 0 133 -58q54 58 129 58q84 0 126 -57.5t42 -147.5v-377h-248v-285q2 -74 28.5 -109.5t96.5 -35.5q42 0 100 20l27 -88q-77 -32 -152 -32q-90 0 -151 65q-55 -65 -139 -65q-90 0 -135.5 55.5t-45.5 157.5zM164 186 q0 -40 19.5 -72t60.5 -32q82 0 82 102v723q0 39 -20.5 68t-61.5 29q-42 0 -61 -28t-19 -65v-725zM430 606h145v289q0 106 -71 106q-70 0 -74 -90v-305z" />
<glyph unicode="&#x178;" horiz-adv-x="509" d="M37 1460h110l115 -624l113 624h100l-164 -813v-647h-106v651zM123 1581v250h90v-250h-90zM297 1581v250h90v-250h-90z" />
<glyph unicode="&#x2c6;" horiz-adv-x="399" d="M55 1200l109 273h78l102 -273h-88l-57 166l-58 -166h-86z" />
<glyph unicode="&#x2dc;" horiz-adv-x="497" d="M86 1237q6 63 31 101t67 38q25 0 69.5 -20.5t61.5 -20.5q18 0 25 11t12 38l64 -12q-3 -57 -30 -95t-67 -38q-27 0 -73 20.5t-58 20.5q-17 0 -26 -10t-15 -43z" />
<glyph unicode="&#x2000;" horiz-adv-x="926" />
<glyph unicode="&#x2001;" horiz-adv-x="1853" />
<glyph unicode="&#x2002;" horiz-adv-x="926" />
<glyph unicode="&#x2003;" horiz-adv-x="1853" />
<glyph unicode="&#x2004;" horiz-adv-x="617" />
<glyph unicode="&#x2005;" horiz-adv-x="463" />
<glyph unicode="&#x2006;" horiz-adv-x="308" />
<glyph unicode="&#x2007;" horiz-adv-x="308" />
<glyph unicode="&#x2008;" horiz-adv-x="231" />
<glyph unicode="&#x2009;" horiz-adv-x="370" />
<glyph unicode="&#x200a;" horiz-adv-x="102" />
<glyph unicode="&#x2010;" horiz-adv-x="333" d="M43 569v99h248v-99h-248z" />
<glyph unicode="&#x2011;" horiz-adv-x="333" d="M43 569v99h248v-99h-248z" />
<glyph unicode="&#x2012;" horiz-adv-x="333" d="M43 569v99h248v-99h-248z" />
<glyph unicode="&#x2013;" horiz-adv-x="522" d="M0 575v93h522v-93h-522z" />
<glyph unicode="&#x2014;" horiz-adv-x="862" d="M0 575v93h862v-93h-862z" />
<glyph unicode="&#x2018;" horiz-adv-x="247" d="M74 1092v186l39 188h59l-29 -178h27v-196h-96z" />
<glyph unicode="&#x2019;" horiz-adv-x="247" d="M76 1090l28 178h-26v196h96v-186l-41 -188h-57z" />
<glyph unicode="&#x201a;" horiz-adv-x="247" d="M76 -172l28 178h-26v197h96v-187l-41 -188h-57z" />
<glyph unicode="&#x201c;" horiz-adv-x="452" d="M74 1092v186l39 188h59l-29 -178h27v-196h-96zM279 1092v186l40 188h60l-31 -178h29v-196h-98z" />
<glyph unicode="&#x201d;" horiz-adv-x="452" d="M76 1090l28 178h-26v196h96v-186l-41 -188h-57zM281 1090l30 178h-28v196h98v-186l-41 -188h-59z" />
<glyph unicode="&#x201e;" horiz-adv-x="452" d="M76 -172l28 178h-26v197h96v-187l-41 -188h-57zM281 -172l30 178h-28v197h98v-187l-41 -188h-59z" />
<glyph unicode="&#x2022;" horiz-adv-x="645" d="M80 702q0 101 72 171.5t172 70.5t170.5 -70.5t70.5 -171.5q0 -100 -70 -171.5t-171 -71.5t-172.5 71t-71.5 172z" />
<glyph unicode="&#x2026;" horiz-adv-x="727" d="M74 0v203h96v-203h-96zM315 0v203h97v-203h-97zM557 0v203h96v-203h-96z" />
<glyph unicode="&#x202f;" horiz-adv-x="370" />
<glyph unicode="&#x2039;" horiz-adv-x="294" d="M43 571l131 238l70 -39l-92 -199l100 -198l-70 -43z" />
<glyph unicode="&#x203a;" horiz-adv-x="294" d="M43 768l70 43l139 -240l-133 -239l-68 41l90 198z" />
<glyph unicode="&#x205f;" horiz-adv-x="463" />
<glyph unicode="&#x20ac;" horiz-adv-x="565" d="M41 575v87h61v155h-61v86h61v352q0 103 54 165.5t159 62.5q100 0 149.5 -60t49.5 -147v-262h-98v243q0 125 -103 125q-35 0 -57.5 -10.5t-32 -31.5t-12 -40.5t-2.5 -50.5v-346h170v-86h-170v-155h170v-87h-170v-360q0 -61 26 -96t78 -35q103 0 103 133v238h98v-240 q0 -102 -51 -165.5t-148 -63.5q-105 0 -159 56.5t-54 152.5v380h-61z" />
<glyph unicode="&#x2122;" horiz-adv-x="612" d="M31 1397v63h205v-63h-66v-602h-72v602h-67zM279 795v665h90l51 -270l49 270h88v-665h-70v505l-43 -237h-55l-45 235v-503h-65z" />
<glyph unicode="&#x25fc;" horiz-adv-x="1085" d="M0 0v1085h1085v-1085h-1085z" />
</font>
</defs>
</svg>
